 <svg width="20" height="14" viewBox="0 0 20 14" fill="none" xmlns="http://www.w3.org/2000/svg">
<path d="M17.1753 11.3389L16.7629 11.6217L17.1753 11.3389ZM17.1753 2.66106L16.7629 2.3783V2.3783L17.1753 2.66106ZM1.5 3C1.5 2.17157 2.17157 1.5 3 1.5V0.5C1.61929 0.5 0.5 1.61929 0.5 3H1.5ZM1.5 11V3H0.5V11H1.5ZM3 12.5C2.17157 12.5 1.5 11.8284 1.5 11H0.5C0.5 12.3807 1.61929 13.5 3 13.5V12.5ZM13 12.5H3V13.5H13V12.5ZM14.5 11C14.5 11.8284 13.8284 12.5 13 12.5V13.5C14.3807 13.5 15.5 12.3807 15.5 11H14.5ZM14.5 3V11H15.5V3H14.5ZM13 1.5C13.8284 1.5 14.5 2.17157 14.5 3H15.5C15.5 1.61929 14.3807 0.5 13 0.5V1.5ZM3 1.5H13V0.5H3V1.5ZM18.5 3.22659V10.7734H19.5V3.22659H18.5ZM17.5876 11.0562L15.4124 7.8839L14.5876 8.44943L16.7629 11.6217L17.5876 11.0562ZM15.4124 6.1161L17.5876 2.94383L16.7629 2.3783L14.5876 5.55057L15.4124 6.1161ZM18.5 10.7734C18.5 11.2647 17.8655 11.4614 17.5876 11.0562L16.7629 11.6217C17.5965 12.8374 19.5 12.2474 19.5 10.7734H18.5ZM19.5 3.22659C19.5 1.75259 17.5965 1.16265 16.7629 2.3783L17.5876 2.94383C17.8655 2.53861 18.5 2.73526 18.5 3.22659H19.5Z"/>
</svg>
    