<svg width="30" height="30" viewBox="0 0 30 30" fill="none" xmlns="http://www.w3.org/2000/svg">
<rect width="30" height="30" rx="6" fill="#F8F8F8"/>
<path d="M23.1753 19.3389L22.7629 19.6217L23.1753 19.3389ZM23.1753 10.6611L22.7629 10.3783V10.3783L23.1753 10.6611ZM7.5 11C7.5 10.1716 8.17157 9.5 9 9.5V8.5C7.61929 8.5 6.5 9.61929 6.5 11H7.5ZM7.5 19V11H6.5V19H7.5ZM9 20.5C8.17157 20.5 7.5 19.8284 7.5 19H6.5C6.5 20.3807 7.61929 21.5 9 21.5V20.5ZM19 20.5H9V21.5H19V20.5ZM20.5 19C20.5 19.8284 19.8284 20.5 19 20.5V21.5C20.3807 21.5 21.5 20.3807 21.5 19H20.5ZM20.5 11V19H21.5V11H20.5ZM19 9.5C19.8284 9.5 20.5 10.1716 20.5 11H21.5C21.5 9.61929 20.3807 8.5 19 8.5V9.5ZM9 9.5H19V8.5H9V9.5ZM24.5 11.2266V18.7734H25.5V11.2266H24.5ZM23.5876 19.0562L21.4124 15.8839L20.5876 16.4494L22.7629 19.6217L23.5876 19.0562ZM21.4124 14.1161L23.5876 10.9438L22.7629 10.3783L20.5876 13.5506L21.4124 14.1161ZM24.5 18.7734C24.5 19.2647 23.8655 19.4614 23.5876 19.0562L22.7629 19.6217C23.5965 20.8374 25.5 20.2474 25.5 18.7734H24.5ZM25.5 11.2266C25.5 9.75259 23.5965 9.16265 22.7629 10.3783L23.5876 10.9438C23.8655 10.5386 24.5 10.7353 24.5 11.2266H25.5Z" fill="#514EEF"/>
</svg>
